<mxfile host="app.diagrams.net" modified="2022-08-12T06:11:33.698Z" agent="5.0 (Windows NT 10.0; Win64; x64) AppleWebKit/537.36 (KHTML, like Gecko) Chrome/104.0.0.0 Safari/537.36" etag="wYQG--Oluj0gD-tITnoM" version="20.2.2" type="github">
  <diagram id="4pkvRpUq2l7QiAC6wBXF" name="Page-1">
    <mxGraphModel dx="1298" dy="684" grid="1" gridSize="10" guides="1" tooltips="1" connect="1" arrows="1" fold="1" page="1" pageScale="1" pageWidth="850" pageHeight="1100" math="0" shadow="0">
      <root>
        <mxCell id="0" />
        <mxCell id="1" parent="0" />
        <mxCell id="_R_fnTamVolap5O1p_KI-4" style="edgeStyle=orthogonalEdgeStyle;rounded=1;orthogonalLoop=1;jettySize=auto;html=1;entryX=0.5;entryY=0;entryDx=0;entryDy=0;fillColor=#f8cecc;strokeColor=#B85450;shadow=1;strokeWidth=3;" edge="1" parent="1" source="_R_fnTamVolap5O1p_KI-1" target="_R_fnTamVolap5O1p_KI-3">
          <mxGeometry relative="1" as="geometry" />
        </mxCell>
        <mxCell id="_R_fnTamVolap5O1p_KI-1" value="Selecting Etisalat Service" style="rounded=1;whiteSpace=wrap;html=1;fillColor=#dae8fc;strokeColor=none;arcSize=50;shadow=1;glass=0;fontStyle=1" vertex="1" parent="1">
          <mxGeometry x="280" y="40" width="200" height="60" as="geometry" />
        </mxCell>
        <mxCell id="_R_fnTamVolap5O1p_KI-11" style="edgeStyle=orthogonalEdgeStyle;rounded=1;orthogonalLoop=1;jettySize=auto;html=1;shadow=1;strokeColor=#B85450;strokeWidth=3;" edge="1" parent="1" source="_R_fnTamVolap5O1p_KI-3" target="_R_fnTamVolap5O1p_KI-5">
          <mxGeometry relative="1" as="geometry" />
        </mxCell>
        <mxCell id="_R_fnTamVolap5O1p_KI-3" value="Asking For Number" style="rounded=1;whiteSpace=wrap;html=1;fillColor=#ffe6cc;strokeColor=none;shadow=1;arcSize=50;fontStyle=1" vertex="1" parent="1">
          <mxGeometry x="280" y="150" width="200" height="60" as="geometry" />
        </mxCell>
        <mxCell id="_R_fnTamVolap5O1p_KI-8" style="edgeStyle=orthogonalEdgeStyle;rounded=1;orthogonalLoop=1;jettySize=auto;html=1;entryX=0.5;entryY=0;entryDx=0;entryDy=0;strokeColor=#B85450;shadow=1;strokeWidth=3;" edge="1" parent="1" source="_R_fnTamVolap5O1p_KI-5" target="_R_fnTamVolap5O1p_KI-7">
          <mxGeometry relative="1" as="geometry" />
        </mxCell>
        <mxCell id="_R_fnTamVolap5O1p_KI-5" value="Accepting Cash From Biller" style="rounded=1;whiteSpace=wrap;html=1;fontStyle=1;shadow=1;arcSize=50;fillColor=#fff2cc;strokeColor=none;" vertex="1" parent="1">
          <mxGeometry x="280" y="270" width="200" height="60" as="geometry" />
        </mxCell>
        <mxCell id="_R_fnTamVolap5O1p_KI-10" style="edgeStyle=orthogonalEdgeStyle;rounded=1;orthogonalLoop=1;jettySize=auto;html=1;strokeColor=#B85450;shadow=1;strokeWidth=3;" edge="1" parent="1" source="_R_fnTamVolap5O1p_KI-7" target="_R_fnTamVolap5O1p_KI-9">
          <mxGeometry relative="1" as="geometry" />
        </mxCell>
        <mxCell id="_R_fnTamVolap5O1p_KI-7" value="Verify the Details" style="rounded=1;whiteSpace=wrap;html=1;fillColor=#e1d5e7;strokeColor=none;fontStyle=1;shadow=1;arcSize=50;" vertex="1" parent="1">
          <mxGeometry x="280" y="370" width="200" height="60" as="geometry" />
        </mxCell>
        <mxCell id="_R_fnTamVolap5O1p_KI-19" style="edgeStyle=orthogonalEdgeStyle;rounded=1;orthogonalLoop=1;jettySize=auto;html=1;entryX=0.5;entryY=0;entryDx=0;entryDy=0;shadow=1;strokeColor=#B85450;strokeWidth=3;" edge="1" parent="1" source="_R_fnTamVolap5O1p_KI-9" target="_R_fnTamVolap5O1p_KI-17">
          <mxGeometry relative="1" as="geometry" />
        </mxCell>
        <mxCell id="_R_fnTamVolap5O1p_KI-9" value="Sending Balance&lt;br&gt;&lt;ol&gt;&lt;li&gt;Generating Simplified String&lt;/li&gt;&lt;li&gt;Generating Signature&lt;/li&gt;&lt;li&gt;Generating Request&lt;/li&gt;&lt;li&gt;Sending The Balance&lt;/li&gt;&lt;/ol&gt;" style="rounded=1;whiteSpace=wrap;html=1;arcSize=50;fillColor=#f8cecc;strokeColor=none;fillStyle=solid;shadow=1;glass=0;sketch=0;fontStyle=1;verticalAlign=top;" vertex="1" parent="1">
          <mxGeometry x="235" y="470" width="290" height="130" as="geometry" />
        </mxCell>
        <mxCell id="_R_fnTamVolap5O1p_KI-21" style="edgeStyle=orthogonalEdgeStyle;rounded=1;orthogonalLoop=1;jettySize=auto;html=1;shadow=1;strokeColor=#B85450;strokeWidth=3;" edge="1" parent="1" source="_R_fnTamVolap5O1p_KI-17" target="_R_fnTamVolap5O1p_KI-20">
          <mxGeometry relative="1" as="geometry" />
        </mxCell>
        <mxCell id="_R_fnTamVolap5O1p_KI-17" value="Verifying and Printing&lt;br&gt;&lt;ol&gt;&lt;li&gt;Receipt Printing&lt;/li&gt;&lt;li&gt;Logging&lt;/li&gt;&lt;li&gt;Transaction Handling&lt;/li&gt;&lt;/ol&gt;" style="rounded=1;whiteSpace=wrap;html=1;arcSize=50;fillColor=#d5e8d4;strokeColor=#82b366;fillStyle=solid;shadow=1;glass=0;sketch=0;fontStyle=1;verticalAlign=top;" vertex="1" parent="1">
          <mxGeometry x="235" y="660" width="290" height="130" as="geometry" />
        </mxCell>
        <mxCell id="_R_fnTamVolap5O1p_KI-22" style="edgeStyle=orthogonalEdgeStyle;rounded=1;orthogonalLoop=1;jettySize=auto;html=1;entryX=0;entryY=0.5;entryDx=0;entryDy=0;shadow=1;strokeColor=#B85450;strokeWidth=3;" edge="1" parent="1" source="_R_fnTamVolap5O1p_KI-20" target="_R_fnTamVolap5O1p_KI-1">
          <mxGeometry relative="1" as="geometry">
            <Array as="points">
              <mxPoint x="90" y="860" />
              <mxPoint x="90" y="70" />
            </Array>
          </mxGeometry>
        </mxCell>
        <mxCell id="_R_fnTamVolap5O1p_KI-20" value="Success Message" style="rounded=1;whiteSpace=wrap;html=1;fillColor=#dae8fc;strokeColor=#6c8ebf;fontStyle=1;shadow=1;arcSize=50;" vertex="1" parent="1">
          <mxGeometry x="280" y="830" width="200" height="60" as="geometry" />
        </mxCell>
      </root>
    </mxGraphModel>
  </diagram>
</mxfile>
